# xmcd
#
# Track frame offsets:
#	150
#	23790
#	51090
#	74944
#	97005
#	121286
#	147569
#	170541
#	190034
#	211053
#	230001
#
# Disc length: 3416 seconds
#
# Revision: 0
# Processed by: cddbd v1.4PL0 Copyright (c) Steve Scherf et al.
# Submitted via: dBpowerAMP V4.0
#
DISCID=a50d560b
DTITLE=Presuntos Implicados - La Noche [CD2)
DYEAR=1900
DGENRE=Soul
TTITLE0=Sed De Amor
TTITLE1=Icaro
TTITLE2=La Noche
TTITLE3=Debatiéndome
TTITLE4=Como Hemos Cambiado
TTITLE5=Alma de Blues
TTITLE6=En La Oscuridad
TTITLE7=Sentir Su Calor
TTITLE8=Cada Historia
TTITLE9=Fallen (Sueño)
TTITLE10=Llovió
EXTD=
EXTT0=
EXTT1=
EXTT2=
EXTT3=
EXTT4=
EXTT5=
EXTT6=
EXTT7=
EXTT8=
EXTT9=
EXTT10=
PLAYORDER=
